<svg width="1586" height="318" viewBox="0 0 1586 318" fill="none" xmlns="http://www.w3.org/2000/svg">
<path d="M10.6534 110.851V72.8182H189.844V110.851H123.047V291H77.4503V110.851H10.6534ZM218.501 291V127.364H263.885V291H218.501ZM241.3 106.27C234.553 106.27 228.764 104.033 223.935 99.5582C219.176 95.0128 216.797 89.5795 216.797 83.2585C216.797 77.0085 219.176 71.6463 223.935 67.1719C228.764 62.6264 234.553 60.3537 241.3 60.3537C248.047 60.3537 253.8 62.6264 258.558 67.1719C263.388 71.6463 265.803 77.0085 265.803 83.2585C265.803 89.5795 263.388 95.0128 258.558 99.5582C253.8 104.033 248.047 106.27 241.3 106.27ZM300.24 291V127.364H343.493V156.234H345.41C348.819 146.646 354.501 139.082 362.456 133.543C370.41 128.003 379.927 125.233 391.007 125.233C402.228 125.233 411.781 128.038 419.664 133.649C427.548 139.189 432.804 146.717 435.431 156.234H437.136C440.474 146.859 446.511 139.366 455.247 133.756C464.054 128.074 474.458 125.233 486.461 125.233C501.731 125.233 514.125 130.098 523.642 139.828C533.23 149.487 538.024 163.195 538.024 180.95V291H492.747V189.899C492.747 180.808 490.332 173.99 485.502 169.445C480.673 164.899 474.636 162.626 467.392 162.626C459.153 162.626 452.725 165.254 448.109 170.51C443.493 175.695 441.184 182.548 441.184 191.071V291H397.186V188.94C397.186 180.915 394.877 174.523 390.261 169.764C385.716 165.006 379.714 162.626 372.257 162.626C367.214 162.626 362.669 163.905 358.62 166.462C354.643 168.947 351.483 172.463 349.139 177.009C346.795 181.483 345.623 186.739 345.623 192.776V291H300.24ZM648.446 294.196C631.614 294.196 617.125 290.787 604.98 283.969C592.907 277.08 583.603 267.349 577.069 254.778C570.534 242.136 567.267 227.186 567.267 209.928C567.267 193.095 570.534 178.322 577.069 165.609C583.603 152.896 592.8 142.989 604.661 135.886C616.593 128.784 630.584 125.233 646.635 125.233C657.431 125.233 667.48 126.973 676.784 130.453C686.159 133.862 694.327 139.011 701.287 145.901C708.319 152.79 713.787 161.455 717.694 171.895C721.6 182.264 723.553 194.409 723.553 208.33V220.794H585.378V192.669H680.833C680.833 186.135 679.412 180.347 676.571 175.304C673.73 170.261 669.789 166.32 664.746 163.479C659.775 160.567 653.986 159.111 647.381 159.111C640.492 159.111 634.384 160.709 629.057 163.905C623.801 167.03 619.682 171.256 616.699 176.582C613.716 181.838 612.189 187.697 612.118 194.161V220.901C612.118 228.997 613.61 235.993 616.593 241.888C619.647 247.783 623.944 252.328 629.483 255.524C635.023 258.72 641.593 260.318 649.192 260.318C654.235 260.318 658.851 259.608 663.042 258.188C667.232 256.767 670.819 254.636 673.801 251.795C676.784 248.955 679.057 245.474 680.62 241.355L722.594 244.125C720.463 254.21 716.096 263.017 709.49 270.545C702.956 278.003 694.505 283.827 684.135 288.017C673.837 292.136 661.941 294.196 648.446 294.196ZM954.519 181.909C954.519 205.702 950.009 225.943 940.989 242.634C932.04 259.324 919.824 272.072 904.341 280.879C888.929 289.615 871.6 293.983 852.353 293.983C832.963 293.983 815.563 289.58 800.151 280.773C784.739 271.966 772.559 259.217 763.61 242.527C754.661 225.837 750.186 205.631 750.186 181.909C750.186 158.116 754.661 137.875 763.61 121.185C772.559 104.494 784.739 91.7812 800.151 83.0455C815.563 74.2386 832.963 69.8352 852.353 69.8352C871.6 69.8352 888.929 74.2386 904.341 83.0455C919.824 91.7812 932.04 104.494 940.989 121.185C950.009 137.875 954.519 158.116 954.519 181.909ZM907.75 181.909C907.75 166.497 905.442 153.5 900.826 142.918C896.28 132.335 889.853 124.31 881.543 118.841C873.233 113.372 863.503 110.638 852.353 110.638C841.202 110.638 831.472 113.372 823.162 118.841C814.853 124.31 808.39 132.335 803.773 142.918C799.228 153.5 796.955 166.497 796.955 181.909C796.955 197.321 799.228 210.318 803.773 220.901C808.39 231.483 814.853 239.509 823.162 244.977C831.472 250.446 841.202 253.18 852.353 253.18C863.503 253.18 873.233 250.446 881.543 244.977C889.853 239.509 896.28 231.483 900.826 220.901C905.442 210.318 907.75 197.321 907.75 181.909ZM1075.83 127.364V161.455H974.84V127.364H1075.83ZM997.958 291V115.538C997.958 103.678 1000.27 93.8409 1004.88 86.0284C1009.57 78.2159 1015.96 72.3565 1024.06 68.4503C1032.16 64.544 1041.35 62.5909 1051.65 62.5909C1058.61 62.5909 1064.97 63.1236 1070.72 64.1889C1076.54 65.2543 1080.88 66.2131 1083.72 67.0653L1075.62 101.156C1073.85 100.588 1071.64 100.055 1069.02 99.5582C1066.46 99.0611 1063.83 98.8125 1061.13 98.8125C1054.46 98.8125 1049.8 100.375 1047.18 103.5C1044.55 106.554 1043.24 110.851 1043.24 116.391V291H997.958ZM1191.56 127.364V161.455H1090.56V127.364H1191.56ZM1113.68 291V115.538C1113.68 103.678 1115.99 93.8409 1120.61 86.0284C1125.29 78.2159 1131.69 72.3565 1139.78 68.4503C1147.88 64.544 1157.08 62.5909 1167.37 62.5909C1174.33 62.5909 1180.69 63.1236 1186.44 64.1889C1192.27 65.2543 1196.6 66.2131 1199.44 67.0653L1191.34 101.156C1189.57 100.588 1187.37 100.055 1184.74 99.5582C1182.18 99.0611 1179.55 98.8125 1176.86 98.8125C1170.18 98.8125 1165.53 100.375 1162.9 103.5C1160.27 106.554 1158.96 110.851 1158.96 116.391V291H1113.68ZM1327.18 291H1277.74L1353.06 72.8182H1412.51L1487.72 291H1438.29L1383.64 122.676H1381.93L1327.18 291ZM1324.09 205.24H1440.85V241.249H1324.09V205.24ZM1560.11 72.8182V291H1513.98V72.8182H1560.11Z" fill="white"/>
</svg>
